<svg width="22" height="22" viewBox="0 0 22 22" fill="none" xmlns="http://www.w3.org/2000/svg">
<path d="M18.2796 10.9961C14.2371 10.9961 10.9568 15.9264 10.9568 22C10.9568 15.9264 7.68034 10.9961 3.63784 10.9961C7.68034 10.9961 10.9568 6.07357 10.9568 0C10.9568 6.07357 14.2371 10.9961 18.2796 10.9961Z" fill="white"/>
<path d="M21.9646 10.9961C17.9221 10.9961 14.6417 15.9264 14.6417 22V0C14.6417 6.07357 17.9221 10.9961 21.9646 10.9961Z" fill="white"/>
<path d="M0 11.0039C4.0425 11.0039 7.32286 6.07357 7.32286 0C7.32286 6.07357 7.32286 15.9264 7.32286 22C7.32286 15.9264 4.0425 11.0039 0 11.0039Z" fill="white"/>
</svg>
